<svg id="Capa_1" enable-background="new 0 0 512 512" height="512" viewBox="0 0 512 512" width="512" xmlns="http://www.w3.org/2000/svg"><path d="m512 187.143c0-103.191-83.952-187.143-187.143-187.143-87.985 0-161.969 61.038-181.867 142.989-81.952 19.898-142.99 93.883-142.99 181.868 0 103.191 83.952 187.143 187.143 187.143 87.985 0 161.969-61.038 181.867-142.989 81.952-19.898 142.99-93.883 142.99-181.868zm-324.857 294.857c-86.649 0-157.143-70.494-157.143-157.143 0-69.524 45.387-128.637 108.083-149.292-.235 3.831-.369 7.688-.369 11.577 0 103.191 83.952 187.144 187.143 187.144 3.889 0 7.746-.134 11.577-.369-20.655 62.697-79.768 108.083-149.291 108.083zm157.143-157.143c0 6.208-.374 12.329-1.077 18.351-6.022.704-12.143 1.077-18.351 1.077-39.521 0-75.677-14.67-103.32-38.845h121.55c.786 6.365 1.198 12.844 1.198 19.417zm-149.351-49.416c-8.109-11.894-14.626-24.953-19.249-38.87h141.388c8.107 11.894 14.622 24.953 19.244 38.87zm-26.02-68.87c-.789-6.368-1.201-12.851-1.201-19.429 0-6.208.374-12.329 1.077-18.351 6.022-.704 12.143-1.077 18.351-1.077 39.528 0 75.689 14.676 103.335 38.857zm205.002 129.863c.235-3.831.369-7.688.369-11.577 0-103.191-83.952-187.144-187.143-187.144-3.889 0-7.746.134-11.577.369 20.655-62.696 79.768-108.082 149.291-108.082 86.649 0 157.143 70.494 157.143 157.143 0 69.523-45.387 128.636-108.083 149.291z"/></svg>