<svg version="1.1" xmlns="http://www.w3.org/2000/svg" xmlns:xlink="http://www.w3.org/1999/xlink" x="0px" y="0px" viewBox="0 0 401.5 147.8" style="enable-background:new 0 0 401.5 147.8;" xml:space="preserve">
<style type="text/css">
    .st0{fill:#193054;}
    .st1{fill:#E41D32;}
</style>
<g>
    <path class="st0" d="M39.7,42v10c0,0.3-0.3,0.7-0.7,0.7H14.1c-0.4,0-0.7,0.3-0.7,0.7v13.9c0,0.3,0.3,0.7,0.7,0.7l18.3,0
        c0.4,0,0.7,0.3,0.7,0.7v10c0,0.3-0.3,0.7-0.7,0.7H14.1c-0.4,0-0.7,0.3-0.7,0.7v25.7c0,0.4-0.3,0.7-0.7,0.7H1.5
        c-0.4,0-0.7-0.3-0.7-0.7V42c0-0.4,0.3-0.7,0.7-0.7H39C39.4,41.3,39.7,41.6,39.7,42z M66.2,41.3H54.9c-0.4,0-0.7,0.3-0.7,0.7v63.6
        c0,0.3,0.3,0.7,0.7,0.7h11.3c0.4,0,0.7-0.3,0.7-0.7V42C66.9,41.6,66.6,41.3,66.2,41.3z M119.7,94.9h-25c-0.4,0-0.7-0.3-0.7-0.7V42
        c0-0.4-0.3-0.7-0.7-0.7H82c-0.4,0-0.7,0.3-0.7,0.7v63.6c0,0.3,0.3,0.7,0.7,0.7h37.7c0.4,0,0.7-0.3,0.7-0.7v-10
        C120.4,95.2,120.1,94.9,119.7,94.9z M190.5,41.3h-9.5c-0.2,0-0.5,0.1-0.6,0.3l-18,28.9c-0.3,0.4-0.9,0.4-1.1,0L143,41.6
        c-0.1-0.2-0.3-0.3-0.6-0.3H133c-0.4,0-0.7,0.3-0.7,0.7v63.6c0,0.3,0.3,0.7,0.7,0.7h11.3c0.4,0,0.7-0.3,0.7-0.7v-35
        c0-0.6,0.9-0.9,1.2-0.4l15,22c0.3,0.4,0.8,0.4,1.1,0l15-22c0.4-0.5,1.2-0.3,1.2,0.4v35c0,0.3,0.3,0.7,0.7,0.7h11.3
        c0.4,0,0.7-0.3,0.7-0.7V42C191.1,41.6,190.8,41.3,190.5,41.3z"></path>
    <path class="st1" d="M284.6,42v63.6c0,0.3-0.3,0.7-0.7,0.7h-11.3c-0.4,0-0.7-0.3-0.7-0.7V42c0-0.4,0.3-0.7,0.7-0.7h11.3
        C284.3,41.3,284.6,41.6,284.6,42z M374.9,52.7L374.9,52.7c0.1,0,0.2-0.1,0.3-0.1h24.9c0.4,0,0.7-0.3,0.7-0.7V42
        c0-0.4-0.3-0.7-0.7-0.7h-37.6c-0.4,0-0.7,0.3-0.7,0.7v63.6c0,0.4,0.3,0.7,0.7,0.7h37.6c0.4,0,0.7-0.3,0.7-0.7v-10
        c0-0.4-0.3-0.7-0.7-0.7h-24.9c-0.2,0-0.3-0.1-0.4-0.2c-0.2-0.1-0.2-0.3-0.2-0.5V79.9c0-0.4,0.3-0.7,0.7-0.7h18.2
        c0.4,0,0.7-0.3,0.7-0.7l0-10c0-0.4-0.3-0.7-0.7-0.7h-1.1L378,68h-2.8c-0.4,0-0.7-0.3-0.7-0.7v-14C374.5,53,374.7,52.8,374.9,52.7z
         M329.7,68.4l-7.7-1.1c-2.6-0.4-4.8-1.4-6-2.6c-1.4-1.3-1.9-3-1.9-4.7c0-4.5,3.3-8.2,10-8.2c4.1,0,8.9,0.5,12.8,4.1
        c0.3,0.2,0.7,0.2,0.9,0l7.1-7c0.3-0.3,0.3-0.7,0-1c-5.5-5-11.8-7.1-20.5-7.1c-14.1,0-22.6,8.1-22.6,19.7c0,5.5,1.6,9.7,4.7,12.8
        c2.9,2.8,7,4.6,12.6,5.4l7.9,1.1c3,0.5,4.5,1.1,5.7,2.3c1.4,1.3,2,3.2,2,5.5c0,5.2-4,8-11.5,8c-5.8,0-11.2-1.3-15.2-5
        c-0.3-0.3-0.7-0.3-0.9,0l-7.3,7.3c-0.3,0.3-0.3,0.7,0,1c6.3,6.1,13.6,8.1,23.2,8.1c13.6,0,24.1-7.1,24.1-19.7
        c0-5.7-1.6-10.5-5-13.8C339.4,70.9,335.6,69.2,329.7,68.4z M256.2,106.3h-11.4c-0.4,0-0.7-0.2-0.9-0.6c-1-1.8-4.3-10.2-5.7-19.2
        c-0.6-3.5-3.6-6.1-7.2-6.1h-10.1c-0.8,0-1.4,0.6-1.4,1.4v23.9c0,0.4-0.3,0.7-0.7,0.7h-11.3c-0.4,0-0.7-0.3-0.7-0.7V42.8
        c0-0.8,0.6-1.4,1.4-1.4h22.1c1.8,0,3.5,0.2,5,0.5c1.2,0.2,2.3,0.5,3.4,0.9c1.3,0.5,2.4,1,3.5,1.7c0.1,0.1,0.2,0.1,0.3,0.2
        c0.1,0,0.2,0.1,0.3,0.2c2.3,1.5,4.1,3.4,5.5,5.6c1.2,1.9,2.1,4,2.6,6.2c0.1,0.5,0.2,1.1,0.3,1.6c0.2,1,0.2,2,0.2,3.1
        c0,3.7-0.9,6.8-2.4,9.4c0,0.1-0.1,0.1-0.1,0.2c-1.2,1.9-2.7,3.5-4.4,4.8c-0.1,0-0.1,0.1-0.2,0.1c0,0,0,0,0.1,0c0,0,0.1,0,0.1,0
        c0.3,0.2,1,0.4,1.9,0.9c1.7,1.1,2.7,2.9,2.9,4.9c0.2,1.3,0.4,2.6,0.6,3.9c0.7,3.8,1.7,7.4,3,11c1,2.9,2.5,6,3.9,8.7
        C257,105.8,256.7,106.3,256.2,106.3z M238.7,61.3c0-0.3,0-0.6,0-0.9c0-0.3-0.1-0.6-0.1-0.8c0-0.2-0.1-0.4-0.1-0.5
        c0-0.1,0-0.2-0.1-0.3c-0.1-0.2-0.2-0.5-0.2-0.7c0,0,0,0,0,0c0,0,0-0.1,0-0.1c-0.6-1.5-1.7-2.7-3-3.6c-1.1-0.7-2.3-1.1-3.8-1.4
        c-0.6-0.1-1.2-0.1-1.8-0.1h-9.3c-0.4,0-0.7,0.3-0.7,0.7v15.8c0,0.3,0.3,0.7,0.7,0.7h9.3c1.2,0,2.3-0.2,3.4-0.5
        c1.4-0.4,2.7-1.2,3.6-2.2c0.1-0.1,0.3-0.2,0.4-0.4c0.2-0.3,0.5-0.6,0.6-0.9c0.7-1.1,1.1-2.4,1.2-3.8
        C238.7,61.9,238.7,61.6,238.7,61.3z M315.8,146.1c0,0.5-0.3,1-0.9,1c-1.5,0.1-3,0.1-4.6,0.1c-25,0-47.1-12.5-60.4-31.7
        c-0.4-0.6,0-1.5,0.8-1.5h10.9c0.3,0,0.5,0.1,0.7,0.3c11.5,13.7,28.8,22.3,48,22.3c1.3,0,2.5,0,3.8-0.1c0.5,0,1,0.3,1,0.9
        L315.8,146.1z M370.3,31.5c0.4,0.6,0,1.5-0.8,1.5h-10.9c-0.3,0-0.5-0.1-0.7-0.3C346.4,19.4,329.4,11,310.4,11c-1.5,0-3,0.1-4.5,0.2
        c-0.5,0-1-0.3-1-0.8l-0.7-8.6c0-0.5,0.3-1,0.9-1c1.8-0.1,3.5-0.2,5.3-0.2C335.2,0.5,357,12.8,370.3,31.5z"></path>
</g>
</svg>