<svg id="Capa_1" enable-background="new 0 0 512 512" height="512" viewBox="0 0 512 512" width="512" xmlns="http://www.w3.org/2000/svg"><g><circle cx="406" cy="308.5" r="7.5"/><path stroke-width="10" d="m437.02 74.98c-48.353-48.351-112.64-74.98-181.02-74.98-62.629 0-122.916 22.87-169.754 64.396-3.099 2.748-3.384 7.488-.636 10.588 2.747 3.1 7.487 3.385 10.587.637 44.092-39.092 100.844-60.621 159.803-60.621 132.888 0 241 108.112 241 241s-108.112 241-241 241c-49.671 0-97.374-15.001-137.951-43.381-2.598-1.816-6.056-1.805-8.641.03-12.3 8.735-26.791 13.351-41.908 13.351-3.371 0-6.709-.229-10.003-.683 11.864-8.271 21.589-19.423 28.194-32.556 1.444-2.871.898-6.345-1.358-8.634-44.71-45.377-69.333-105.44-69.333-169.127 0-58.959 21.529-115.711 60.621-159.803 2.748-3.1 2.463-7.84-.636-10.588-3.1-2.747-7.84-2.463-10.587.637-41.528 46.838-64.398 107.124-64.398 169.754 0 65.784 24.729 127.927 69.763 175.627-8.095 13.565-20.386 24.152-35.077 30.1-2.832 1.146-4.686 3.896-4.686 6.952s1.854 5.806 4.686 6.952c10.439 4.226 21.479 6.369 32.814 6.369 16.474 0 32.334-4.543 46.19-13.188 42.176 28.272 91.267 43.188 142.31 43.188 68.38 0 132.667-26.629 181.02-74.98 48.351-48.353 74.98-112.64 74.98-181.02s-26.629-132.667-74.98-181.02z"/><path  stroke-width="10" d="m233.5 286v-60c0-16.542-13.458-30-30-30s-30 13.458-30 30v60c0 16.542 13.458 30 30 30s30-13.458 30-30zm-45 0v-60c0-8.271 6.729-15 15-15s15 6.729 15 15v60c0 8.271-6.729 15-15 15s-15-6.729-15-15z"/><path  stroke-width="10" d="m338.5 308.5v-68.461l30.606 71.415c1.2 2.799 3.94 4.547 6.891 4.547.5 0 1.006-.051 1.511-.154 3.488-.716 5.992-3.786 5.992-7.347v-105c0-4.143-3.358-7.5-7.5-7.5s-7.5 3.357-7.5 7.5v68.461l-30.606-71.415c-1.403-3.272-4.913-5.106-8.401-4.393-3.488.716-5.992 3.786-5.992 7.347v105c0 4.143 3.358 7.5 7.5 7.5s7.499-3.357 7.499-7.5z"/><path  stroke-width="10" d="m406 286c4.142 0 7.5-3.357 7.5-7.5v-75c0-4.143-3.358-7.5-7.5-7.5s-7.5 3.357-7.5 7.5v75c0 4.143 3.358 7.5 7.5 7.5z"/><path  stroke-width="10" d="m278.5 316c16.542 0 30-13.458 30-30v-60c0-16.542-13.458-30-30-30s-30 13.458-30 30v60c0 16.542 13.458 30 30 30zm-15-90c0-8.271 6.729-15 15-15s15 6.729 15 15v60c0 8.271-6.729 15-15 15s-15-6.729-15-15z"/><path  stroke-width="10" d="m128.5 301c-8.271 0-15-6.729-15-15 0-4.143-3.358-7.5-7.5-7.5s-7.5 3.357-7.5 7.5c0 16.542 13.458 30 30 30s30-13.458 30-30c0-8.609-3.711-16.816-10.177-22.511l-29.727-26.231c-3.239-2.852-5.096-6.955-5.096-11.258 0-8.271 6.729-15 15-15s15 6.729 15 15c0 4.143 3.358 7.5 7.5 7.5s7.5-3.357 7.5-7.5c0-16.542-13.458-30-30-30s-30 13.458-30 30c0 8.61 3.711 16.816 10.177 22.511l29.727 26.231c3.239 2.852 5.096 6.955 5.096 11.258 0 8.271-6.729 15-15 15z"/></g></svg>