<svg height="512" viewBox="0 0 60 60" width="512" xmlns="http://www.w3.org/2000/svg"><g id="004---Translation"><path id="Shape" d="m55 0h-18c-2.7614237 0-5 2.23857625-5 5v16.06c-1.3316283-.0953599-2.6683717-.0953599-4 0v-16.06c0-2.76142375-2.2385763-5-5-5h-18c-2.76142375 0-5 2.23857625-5 5v14c0 2.7614237 2.23857625 5 5 5 12.12 0 11.54-.11 12.4.32l3.52 1.76c-.603451 1.2187424-.918246 2.560043-.92 3.92v5.18c-.9168047-.3241437-1.9338513-.1838094-2.7286171.3765005-.7947659.5603099-1.2686527 1.4710837-1.2713829 2.4434995.0075018 6.4017338 4.674475 11.8451216 11 12.83v3.17h-1c-2.209139 0-4 1.790861-4 4v1c0 .5522847.4477153 1 1 1h14c.5522847 0 1-.4477153 1-1v-1c0-2.209139-1.790861-4-4-4h-1v-3.17c6.325525-.9848784 10.9924982-6.4282662 11-12.83-.0027302-.9724158-.476617-1.8831896-1.2713829-2.4434995-.7947658-.5603099-1.8118124-.7006442-2.7286171-.3765005 0-5.19.25-6.71-.92-9.1 3.62-1.81 3.92-2.08 4.86-2.08h11.06c1.3260824 0 2.597852-.5267842 3.5355339-1.4644661s1.4644661-2.2094515 1.4644661-3.5355339v-14c0-2.76142375-2.2385763-5-5-5zm-38.94 22h-11.06c-1.65685425 0-3-1.3431458-3-3v-14c0-1.65685425 1.34314575-3 3-3h18c1.6568542 0 3 1.34314575 3 3v21.38l-7.71-3.85c-.6922644-.3469626-1.4556548-.5283961-2.23-.53zm19.94 36h-12c0-1.1045695.8954305-2 2-2h8c1.1045695 0 2 .8954305 2 2zm-5-4h-2v-3h2zm10-17c.5522847 0 1 .4477153 1 1 0 2.9173814-1.1589252 5.7152744-3.2218254 7.7781746s-4.8607932 3.2218254-7.7781746 3.2218254h-2c-6.0751322 0-11-4.9248678-11-11 0-.5522847.4477153-1 1-1s1 .4477153 1 1c0 4.9705627 4.0294373 9 9 9h2c2.3869484 0 4.6761336-.9482116 6.363961-2.636039s2.636039-3.9770126 2.636039-6.363961c0-.2652165.1053568-.5195704.2928932-.7071068s.4418903-.2928932.7071068-.2928932zm-3-4h-7c-.5522847 0-1 .4477153-1 1s.4477153 1 1 1h7v3c0 3.8659932-3.1340068 7-7 7h-2c-3.8659932 0-7-3.1340068-7-7v-3h5c.5522847 0 1-.4477153 1-1s-.4477153-1-1-1h-5c0-2.91-.17-4.22.7-6 4.16 2.08 4 2 4.3 2 .5522847 0 1-.4477153 1-1v-4.92c.3308832-.0514711.6651422-.0782118 1-.08 1.0004792-.0571687 2.0039895-.0304084 3 .08v4.92c.0010489.3465932.1814922.6679286.4768822.8492369.2953899.1813084.6635996.1967323.9731178.0407631l3.85-1.89c.89 1.81.7 3.12.7 6zm20-14c0 1.6568542-1.3431458 3-3 3h-11.06c-.7743452.0016039-1.5377356.1830374-2.23.53l-7.71 3.85v-21.38c0-1.65685425 1.3431458-3 3-3h18c1.6568542 0 3 1.34314575 3 3z"/><path id="Shape" d="m14 5c-3.3137085 0-6 2.6862915-6 6v7c0 .5522847.44771525 1 1 1s1-.4477153 1-1v-5h8v5c0 .5522847.4477153 1 1 1s1-.4477153 1-1v-7c0-3.3137085-2.6862915-6-6-6zm-4 6c0-2.209139 1.790861-4 4-4s4 1.790861 4 4z"/><path id="Shape" d="m51 8h-4v-2c0-.55228475-.4477153-1-1-1s-1 .44771525-1 1v2h-4c-.5522847 0-1 .44771525-1 1s.4477153 1 1 1h7c.0739433 1.9145063-.5199521 3.7951752-1.68 5.32-.11.12-.24.21-.36.32-.8338804-.7853738-1.4211031-1.7965086-1.69-2.91-.1461291-.5282319-.6902208-.8404156-1.22-.7-.2578875.067951-.4779489.2360982-.6112738.4670696s-.1688668.5056298-.0987262.7629304c.3222175 1.2628926.9390644 2.4314747 1.8 3.41-.6930965.2151901-1.4142751.3263999-2.14.33-.5522847 0-1 .4477153-1 1s.4477153 1 1 1c1.3877979.0294185 2.7615142-.2831019 4-.91 1.2390433.6253511 2.6123688.9377827 4 .91.5522847 0 1-.4477153 1-1s-.4477153-1-1-1c-.7390031.0090842-1.4747825-.0989201-2.18-.32 1.5108069-1.8896442 2.2853242-4.2629358 2.18-6.68h1c.5522847 0 1-.44771525 1-1s-.4477153-1-1-1z"/></g></svg>